<?xml version="1.0" encoding="UTF-8" standalone="no"?>
<!-- Created with Inkscape (http://www.inkscape.org/) -->

<svg
   width="128"
   height="128"
   viewBox="0 0 33.866667 33.866666"
   version="1.1"
   id="svg1"
   sodipodi:docname="icon_original.svg"
   inkscape:version="1.3.2 (091e20e, 2023-11-25)"
   xmlns:inkscape="http://www.inkscape.org/namespaces/inkscape"
   xmlns:sodipodi="http://sodipodi.sourceforge.net/DTD/sodipodi-0.dtd"
   xmlns="http://www.w3.org/2000/svg"
   xmlns:svg="http://www.w3.org/2000/svg">
  <sodipodi:namedview
     id="namedview1"
     pagecolor="#ffffff"
     bordercolor="#666666"
     borderopacity="1.0"
     inkscape:showpageshadow="2"
     inkscape:pageopacity="0.0"
     inkscape:pagecheckerboard="true"
     inkscape:deskcolor="#d1d1d1"
     inkscape:document-units="mm"
     inkscape:zoom="1.9648697"
     inkscape:cx="-14.759249"
     inkscape:cy="105.3505"
     inkscape:window-width="2560"
     inkscape:window-height="1387"
     inkscape:window-x="1728"
     inkscape:window-y="25"
     inkscape:window-maximized="0"
     inkscape:current-layer="layer1" />
  <defs
     id="defs1" />
  <g
     inkscape:label="Layer 1"
     inkscape:groupmode="layer"
     id="layer1">
    <g
       id="g12"
       transform="translate(4.7625)"
       inkscape:export-filename="icon.svg"
       inkscape:export-xdpi="96"
       inkscape:export-ydpi="96">
      <path
         id="path3"
         style="fill:#000000;fill-opacity:1;stroke:#000000;stroke-width:0.0532505px;stroke-linecap:butt;stroke-linejoin:miter;stroke-opacity:1"
         d="M 22.621865,0.04346175 C 23.326806,1.9426868 21.93169,4.4310778 20.274963,4.9316258 c 1.092512,1.110616 3.069349,0.303449 3.745883,-1.246473 0.651297,-1.492106 -0.03941,-3.17435205 -1.398981,-3.64169105 z M 18.786799,1.8910948 c -2.42064,-0.0016 -5.659153,0.846678 -8.637334,2.300996 -4.8932026,2.389467 -7.4049516,6.3308572 -7.1668086,8.6955112 1.610343,-3.8520762 3.757476,-5.8902832 7.5616656,-7.8871722 3.552362,-2.031913 7.556462,-2.59281 10.935151,-2.557477 -0.661112,-0.374831 -1.592384,-0.551135 -2.692674,-0.551858 z m 5.731892,0.464209 c 0.125842,1.258172 -0.579029,2.363621 -1.393505,2.827983 0.691396,0.669344 1.755131,0.06592 2.097322,-0.821158 0.329424,-0.853986 0.121445,-1.705947 -0.703817,-2.006825 z m -5.843644,1.433055 c 0,0 0.819161,4.922004 -0.342378,7.6106402 -1.172284,2.713496 -5.302862,3.325598 -8.9130976,5.773743 -0.08497,-0.117485 -0.167461,-0.237226 -0.246731,-0.360125 -1.187863,-1.841662 -2.032455,-3.795062 -1.282957,-6.448201 -1.417691,2.653139 -1.378089,4.95801 -0.954822,7.445752 0.07449,0.437815 0.154104,0.854285 0.248155,1.255127 -0.963128,1.025289 -1.81419,2.287333 -2.456462,3.89905 -1.145115,2.873544 -0.335272,7.754649 0.527097,10.895272 0,0 0.315364,-7.877288 3.333715,-9.791558 0.498669,-0.316262 0.983355,-0.605291 1.4595686,-0.881196 0.847949,0.535956 1.946358,1.033163 3.389482,1.501968 3.062805,0.994961 4.630449,1.358739 6.65264,5.661991 C 18.968235,24.99618 18.669284,22.39371 15.131522,21.080009 14.90121,20.994489 14.677702,20.902469 14.453998,20.8106 18.149244,18.817705 20.431261,17.039023 20.37028,11.4013 20.34216,8.8016608 18.675047,3.7883588 18.675047,3.7883588 Z m -8.466091,7.2374762 a 1.6858411,2.2293293 8.1365825 0 0 -1.7639276,1.980641 1.6858411,2.2293293 8.1365825 0 0 1.353404,2.445396 1.6858411,2.2293293 8.1365825 0 0 1.9843646,-1.968261 1.6858411,2.2293293 8.1365825 0 0 -1.353295,-2.445505 1.6858411,2.2293293 8.1365825 0 0 -0.220546,-0.01227 z m -9.72329956,0.859176 c -1.043596,1.156707 -0.120107,3.081979 1.46734796,3.665027 1.528237,0.561297 3.166294,-0.228295 3.55185,-1.613283 -1.853879,0.816774 -4.420903,-0.427753 -5.01919796,-2.051744 z M 19.460926,12.349549 c 0,0 -1.825848,3.595389 -3.632269,4.726341 -2.817053,1.763682 -5.9315836,2.534133 -7.7331276,4.266517 -1.436762,1.381602 -2.278098,3.958869 -2.278098,3.958869 0.06791,-1.92083 0.602313,-3.437415 1.814436,-4.823304 1.731459,-1.979672 3.6833896,-2.584873 6.9314726,-3.970483 2.772613,-1.182776 4.897586,-4.15794 4.897586,-4.15794 z M 0.31079744,14.637507 c -0.669748,0.691008 -0.06166,1.750776 0.82521196,2.093487 0.853794,0.329917 1.702835,0.08347 2.004195,-0.741618 C 1.8299664,16.10522 0.82094044,15.442287 0.31079744,14.637507 Z M 11.241019,21.136871 c 1.318495,0.839135 2.33861,0.767801 3.844159,1.26466 1.793474,0.591883 2.421109,1.485162 2.937871,3.351464 -0.838861,-1.14568 -1.624509,-1.44274 -2.793579,-1.783102 -1.661939,-0.483858 -3.203186,-0.918901 -3.988451,-2.833022 z" />
    </g>
    <g
       id="g20"
       transform="matrix(0.36511413,0,0,0.36511413,-73.769919,-20.640457)">
      <path
         style="fill:#000000;fill-opacity:1;stroke:#000000;stroke-width:0.251166px;stroke-linecap:butt;stroke-linejoin:miter;stroke-opacity:1"
         d="M 69.203614,94.936323 C 62.516775,107.4504 62.70348,118.3219 64.699908,130.05585 c 2.440504,14.34399 5.576464,24.29417 30.665609,32.44448 14.446353,4.69296 21.840603,6.40829 31.378693,26.70548 -5.28755,-25.25631 -6.69725,-37.53082 -23.38386,-43.72718 C 91.558161,141.09604 81.50066,135.03411 75.254726,125.35042 69.65192,116.66383 65.668452,107.4504 69.203614,94.936323 Z"
         id="path12"
         sodipodi:nodetypes="csscsac" />
      <path
         id="path13"
         style="fill:#000000;fill-opacity:1;stroke:#000000;stroke-width:0.264583px;stroke-linecap:butt;stroke-linejoin:miter;stroke-opacity:1"
         d="m 120.07403,63.918846 c 0,0 3.86352,23.215955 -1.61514,35.897466 -8.38042,19.398268 -48.817851,16.013298 -64.174678,54.549728 -5.401171,13.5537 -1.581368,36.57674 2.486172,51.39013 0,0 1.487363,-37.15471 15.724049,-46.18377 32.952787,-20.89898 55.994637,-20.99511 55.575487,-59.745668 -0.13264,-12.261739 -7.99589,-35.907886 -7.99589,-35.907886 z"
         sodipodi:nodetypes="csscssc" />
      <path
         style="fill:#ffffff;fill-opacity:1;stroke:#000000;stroke-width:0.097316px;stroke-linecap:butt;stroke-linejoin:miter;stroke-opacity:1"
         d="m 85.009601,145.74678 c 3.703864,9.02834 10.973708,11.07992 18.812569,13.36213 5.51416,1.60538 9.21954,3.00675 13.17621,8.41059 -2.43743,-8.80279 -5.39734,-13.01633 -13.85662,-15.80806 -7.10122,-2.34353 -11.913213,-2.00672 -18.132159,-5.96466 z"
         id="path14"
         sodipodi:nodetypes="cscsc" />
      <ellipse
         style="fill:#000000;fill-opacity:1;stroke:#000000;stroke-width:0.118517;stroke-linecap:round;stroke-linejoin:round"
         id="ellipse14"
         cx="94.251068"
         cy="96.151497"
         rx="7.951591"
         ry="10.515057"
         transform="rotate(8.1365825)" />
      <path
         style="fill:#000000;fill-opacity:1;stroke:#000000;stroke-width:0.491665px;stroke-linecap:butt;stroke-linejoin:miter;stroke-opacity:1"
         d="m 34.280157,102.10859 c 2.821975,7.65987 14.92994,13.52976 23.674125,9.67729 -1.818554,6.53256 -9.54514,10.25687 -16.753371,7.6094 -7.487541,-2.75006 -11.843079,-11.83085 -6.920754,-17.28669 z"
         id="path15"
         sodipodi:nodetypes="ccsc"
         inkscape:transform-center-x="8.6861134"
         inkscape:transform-center-y="3.7580656" />
      <path
         style="fill:#000000;fill-opacity:1;stroke:#000000;stroke-width:0.288607px;stroke-linecap:butt;stroke-linejoin:miter;stroke-opacity:1"
         d="m 33.455212,115.09118 c 2.406189,3.79591 7.165364,6.92299 13.345357,6.37659 -1.421423,3.89169 -5.425888,5.0536 -9.452976,3.49748 -4.183122,-1.61646 -7.051377,-6.61479 -3.892381,-9.87407 z"
         id="path16"
         sodipodi:nodetypes="ccsc"
         inkscape:transform-center-x="-0.71794626"
         inkscape:transform-center-y="1.0130488" />
      <path
         style="fill:#000000;fill-opacity:1;stroke:#000000;stroke-width:0.491665px;stroke-linecap:butt;stroke-linejoin:miter;stroke-opacity:1"
         d="m 127.61999,69.311304 c 7.81428,-2.360933 14.3947,-14.097859 11.0697,-23.055922 6.41268,2.204295 9.67034,10.138927 6.59837,17.176735 -3.191,7.31051 -12.51502,11.117624 -17.66807,5.879187 z"
         id="path17"
         sodipodi:nodetypes="ccsc" />
      <path
         style="fill:#000000;fill-opacity:1;stroke:#000000;stroke-width:0.288607px;stroke-linecap:butt;stroke-linejoin:miter;stroke-opacity:1"
         d="m 141.06385,70.498301 c 3.84163,-2.190252 7.16594,-7.404155 6.57238,-13.338568 3.89252,1.419151 4.87393,5.437857 3.32014,9.46585 -1.61401,4.184062 -6.63142,7.029808 -9.89252,3.872718 z"
         id="path18"
         sodipodi:nodetypes="ccsc" />
      <path
         style="color:#000000;fill:#000000;stroke-width:1.06075;-inkscape-stroke:none"
         d="M 79.861429,65.823357 C 56.781684,77.093749 44.934403,95.684042 46.057651,106.83739 53.653152,88.668323 63.780252,79.054975 81.723458,69.636259 98.478867,60.052344 117.36527,57.406428 133.30152,57.57308 123.32307,51.915598 100.29368,55.845796 79.861429,65.823357 Z"
         id="path19"
         sodipodi:nodetypes="scscs" />
      <path
         id="path20"
         style="fill:#ffffff;fill-opacity:1;stroke:#000000;stroke-width:0.148897px;stroke-linecap:butt;stroke-linejoin:miter;stroke-opacity:1"
         d="m 123.7806,104.29957 c 0,0 -10.02283,14.03293 -23.10042,19.61175 -15.320246,6.53552 -24.526907,9.39018 -32.693684,18.72771 -5.71723,6.53684 -8.237665,13.68988 -8.557995,22.74987 0,0 3.968407,-12.15593 10.74519,-18.67255 8.497353,-8.17115 23.187607,-11.80553 36.474819,-20.1243 8.52036,-5.33438 17.13209,-22.29248 17.13209,-22.29248 z"
         sodipodi:nodetypes="csscssc" />
    </g>
  </g>
</svg>
