<?xml version="1.0" encoding="UTF-8" standalone="no"?>
<!-- Created with Inkscape (http://www.inkscape.org/) -->

<svg
   width="95.993965"
   height="127.99999"
   viewBox="0 0 25.398404 33.866664"
   version="1.1"
   id="svg1"
   sodipodi:docname="logo.svg"
   inkscape:version="1.3.2 (091e20e, 2023-11-25)"
   inkscape:export-filename="logo.png"
   inkscape:export-xdpi="96"
   inkscape:export-ydpi="96"
   xmlns:inkscape="http://www.inkscape.org/namespaces/inkscape"
   xmlns:sodipodi="http://sodipodi.sourceforge.net/DTD/sodipodi-0.dtd"
   xmlns="http://www.w3.org/2000/svg"
   xmlns:svg="http://www.w3.org/2000/svg">
  <path
     id="path3"
     style="fill:#ffffff;fill-opacity:1;stroke:none;stroke-width:0.0532505px;stroke-linecap:butt;stroke-linejoin:miter;stroke-opacity:1"
     d="M 22.621865,0.04346175 C 23.326806,1.9426868 21.93169,4.4310778 20.274963,4.9316258 c 1.092512,1.110616 3.069349,0.303449 3.745883,-1.246473 0.651297,-1.492106 -0.03941,-3.17435205 -1.398981,-3.64169105 z M 18.786799,1.8910948 c -2.42064,-0.0016 -5.659153,0.846678 -8.637334,2.300996 -4.8932026,2.389467 -7.4049516,6.3308572 -7.1668086,8.6955112 1.610343,-3.8520762 3.757476,-5.8902832 7.5616656,-7.8871722 3.552362,-2.031913 7.556462,-2.59281 10.935151,-2.557477 -0.661112,-0.374831 -1.592384,-0.551135 -2.692674,-0.551858 z m 5.731892,0.464209 c 0.125842,1.258172 -0.579029,2.363621 -1.393505,2.827983 0.691396,0.669344 1.755131,0.06592 2.097322,-0.821158 0.329424,-0.853986 0.121445,-1.705947 -0.703817,-2.006825 z m -5.843644,1.433055 c 0,0 0.819161,4.922004 -0.342378,7.6106402 -1.172284,2.713496 -5.302862,3.325598 -8.9130976,5.773743 -0.08497,-0.117485 -0.167461,-0.237226 -0.246731,-0.360125 -1.187863,-1.841662 -2.032455,-3.795062 -1.282957,-6.448201 -1.417691,2.653139 -1.378089,4.95801 -0.954822,7.445752 0.07449,0.437815 0.154104,0.854285 0.248155,1.255127 -0.963128,1.025289 -1.81419,2.287333 -2.456462,3.89905 -1.145115,2.873544 -0.335272,7.754649 0.527097,10.895272 0,0 0.315364,-7.877288 3.333715,-9.791558 0.498669,-0.316262 0.983355,-0.605291 1.4595686,-0.881196 0.847949,0.535956 1.946358,1.033163 3.389482,1.501968 3.062805,0.994961 4.630449,1.358739 6.65264,5.661991 C 18.968235,24.99618 18.669284,22.39371 15.131522,21.080009 14.90121,20.994489 14.677702,20.902469 14.453998,20.8106 18.149244,18.817705 20.431261,17.039023 20.37028,11.4013 20.34216,8.8016608 18.675047,3.7883588 18.675047,3.7883588 Z m -8.466091,7.2374762 a 1.6858411,2.2293293 8.1365825 0 0 -1.7639276,1.980641 1.6858411,2.2293293 8.1365825 0 0 1.353404,2.445396 1.6858411,2.2293293 8.1365825 0 0 1.9843646,-1.968261 1.6858411,2.2293293 8.1365825 0 0 -1.353295,-2.445505 1.6858411,2.2293293 8.1365825 0 0 -0.220546,-0.01227 z m -9.72329956,0.859176 c -1.043596,1.156707 -0.120107,3.081979 1.46734796,3.665027 1.528237,0.561297 3.166294,-0.228295 3.55185,-1.613283 -1.853879,0.816774 -4.420903,-0.427753 -5.01919796,-2.051744 z M 19.460926,12.349549 c 0,0 -1.825848,3.595389 -3.632269,4.726341 -2.817053,1.763682 -5.9315836,2.534133 -7.7331276,4.266517 -1.436762,1.381602 -2.278098,3.958869 -2.278098,3.958869 0.06791,-1.92083 0.602313,-3.437415 1.814436,-4.823304 1.731459,-1.979672 3.6833896,-2.584873 6.9314726,-3.970483 2.772613,-1.182776 4.897586,-4.15794 4.897586,-4.15794 z M 0.31079744,14.637507 c -0.669748,0.691008 -0.06166,1.750776 0.82521196,2.093487 0.853794,0.329917 1.702835,0.08347 2.004195,-0.741618 C 1.8299664,16.10522 0.82094044,15.442287 0.31079744,14.637507 Z M 11.241019,21.136871 c 1.318495,0.839135 2.33861,0.767801 3.844159,1.26466 1.793474,0.591883 2.421109,1.485162 2.937871,3.351464 -0.838861,-1.14568 -1.624509,-1.44274 -2.793579,-1.783102 -1.661939,-0.483858 -3.203186,-0.918901 -3.988451,-2.833022 z" />
</svg>
