<svg 
  width="32" 
  xmlns="http://www.w3.org/2000/svg" 
  height="32" 
  viewBox="1711.008 1110 32 32" 
  fill="none">
  <g 
    class="fills" 
    data-testid="svg-path">
    <path 
      d="M1717.008 1110c-.554 0-1 .446-1 1v1.766c0 .554.446 1 1 1s1-.446 1-1V1111c0-.554-.446-1-1-1Zm10 0c-.554 0-1 .446-1 1v1.766c0 .554.446 1 1 1s1-.446 1-1V1111c0-.554-.446-1-1-1Zm10 0c-.554 0-1 .446-1 1v1.766c0 .554.446 1 1 1s1-.446 1-1V1111c0-.554-.446-1-1-1Zm-18.5 2v.75a1.5 1.5 0 1 1-3 0v-.725a5.004 5.004 0 0 0-4.5 4.975v20a5 5 0 0 0 5 5h22a5 5 0 0 0 5-5v-20c0-2.609-2.003-4.753-4.502-4.975l.002.057v.779a1.5 1.5 0 1 1-3 0l.002-.861h-7.004l.002.861a1.5 1.5 0 1 1-3 0l.002-.861Zm-5.504 9.494h28.004v15.014c0 2.17-1.005 3.494-3.175 3.494h-21.629c-2.171 0-3.2-1.324-3.2-3.494Zm9.768 1.682c-1.043 0-1.881.84-1.881 1.883 0 1.042.838 1.882 1.881 1.882h.002c1.043 0 1.881-.84 1.881-1.882a1.878 1.878 0 0 0-1.883-1.883Zm6.59 0a1.88 1.88 0 0 0-1.883 1.883c0 1.042.84 1.882 1.883 1.882a1.88 1.88 0 0 0 1.883-1.882 1.88 1.88 0 0 0-1.883-1.883Zm6.588 0a1.88 1.88 0 0 0-1.883 1.883c0 1.042.84 1.882 1.883 1.882a1.88 1.88 0 0 0 1.883-1.882 1.88 1.88 0 0 0-1.883-1.883Zm-19.766 5.648a1.876 1.876 0 0 0-1.881 1.881v.002c0 1.043.838 1.883 1.881 1.883h.002c1.043 0 1.881-.84 1.881-1.883v-.002a1.876 1.876 0 0 0-1.883-1.881Zm6.588 0a1.876 1.876 0 0 0-1.881 1.881v.002c0 1.043.838 1.883 1.881 1.883h.002c1.043 0 1.881-.84 1.881-1.883v-.002a1.876 1.876 0 0 0-1.883-1.881Zm6.59 0a1.877 1.877 0 0 0-1.883 1.881v.002a1.88 1.88 0 0 0 1.883 1.883 1.88 1.88 0 0 0 1.883-1.883v-.002a1.878 1.878 0 0 0-1.883-1.881Zm6.588 0a1.877 1.877 0 0 0-1.883 1.881v.002a1.88 1.88 0 0 0 1.883 1.883 1.88 1.88 0 0 0 1.883-1.883v-.002a1.878 1.878 0 0 0-1.883-1.881Zm-19.766 5.647c-1.043 0-1.881.84-1.881 1.883 0 1.042.838 1.882 1.881 1.882h.002c1.043 0 1.881-.84 1.881-1.882a1.878 1.878 0 0 0-1.883-1.883Zm6.588 0c-1.043 0-1.881.84-1.881 1.883 0 1.042.838 1.882 1.881 1.882h.002c1.043 0 1.881-.84 1.881-1.882a1.878 1.878 0 0 0-1.883-1.883Zm6.59 0a1.88 1.88 0 0 0-1.883 1.883c0 1.042.84 1.882 1.883 1.882a1.88 1.88 0 0 0 1.883-1.882 1.88 1.88 0 0 0-1.883-1.883Z" 
      class="fills" 
      style="display: inline; fill: rgb(177, 178, 181); fill-opacity: 1;"/>
  </g>
</svg>