<?xml version="1.0" encoding="UTF-8" standalone="no"?>
<!-- Created with Inkscape (http://www.inkscape.org/) -->

<svg
   width="8.4666662mm"
   height="8.4666672mm"
   viewBox="0 0 8.4666662 8.4666672"
   version="1.1"
   id="svg1"
   xml:space="preserve"
   xmlns="http://www.w3.org/2000/svg"
   xmlns:svg="http://www.w3.org/2000/svg"><g
     id="layer1"
     transform="translate(-72.666178,-71.196195)"><g
       style="fill:none"
       id="g11"
       transform="matrix(0.26458333,0,0,0.26458333,-165.98989,-222.49133)"><path
         id="path1-2"
         style="fill:#b1b2b5;fill-opacity:1"
         class="fills"
         d="m 906.72203,1110.0001 c -1.37535,0.01 -2.48545,1.1246 -2.48047,2.5 v 2 h 0.49609 c 0.807,0.021 1.44922,0.686 1.44922,1.5 0,0.814 -0.64222,1.479 -1.44922,1.5 h -0.49609 v 7 h 0.49609 c 0.807,0.021 1.44922,0.686 1.44922,1.5 0,0.814 -0.64222,1.479 -1.44922,1.5 h -0.49609 v 7 h 0.49609 c 0.807,0.021 1.44922,0.686 1.44922,1.5 0,0.814 -0.64222,1.479 -1.44922,1.5 h -0.49609 v 2 c 0,1.3798 1.11047,2.5 2.48047,2.5 h 14.79883 c -2.58706,-1.4617 -4.40182,-4.1417 -4.65625,-7.25 h -0.0957 c -0.34368,0 -0.6222,-0.2813 -0.62109,-0.625 0,-0.345 0.27909,-0.625 0.62109,-0.625 h 0.0762 c 0.14714,-2.7372 1.50437,-5.1623 3.54297,-6.75 h -3.61915 c -0.34368,0 -0.6222,-0.2813 -0.62109,-0.625 0,-0.345 0.27909,-0.625 0.62109,-0.625 h 5.77149 c 1.07041,-0.4401 2.24124,-0.6856 3.4668,-0.6856 0.68735,0 1.35492,0.08 2,0.2246 v -12.539 c 0.006,-1.3752 -1.10332,-2.4945 -2.47852,-2.5 z m -3.71484,5 c -0.554,0 -1,0.4488 -1,1.0078 0,0.558 0.446,1.0078 1,1.0078 h 1.75976 c 0.554,0 1,-0.4498 1,-1.0078 0,-0.559 -0.446,-1.0078 -1,-1.0078 z m 10.42968,0.5019 c 0.11645,0.01 0.22636,0.06 0.31055,0.1445 0.19313,0.1965 0.19313,0.5106 0,0.7071 l -3.31445,3.3418 -1.56836,-1.4766 c -0.20024,-0.1889 -0.21233,-0.503 -0.0254,-0.7051 0.18557,-0.202 0.50167,-0.2137 0.70117,-0.025 l 0.86914,0.8164 2.63672,-2.6582 c 0.0739,-0.074 0.16993,-0.124 0.27344,-0.1406 0.0393,-0.01 0.0784,-0.01 0.11718,0 z m 3.33203,1.9981 h 6.6504 c 0.34298,0 0.61914,0.28 0.61914,0.625 0.002,0.3439 -0.27524,0.6239 -0.61914,0.625 h -6.6504 c -0.34368,0 -0.6222,-0.2813 -0.62109,-0.625 0,-0.345 0.27909,-0.625 0.62109,-0.625 z m -3.33203,6.0019 c 0.11645,0.01 0.22636,0.06 0.31055,0.1445 0.19313,0.1965 0.19313,0.5106 0,0.7071 l -3.31445,3.3418 -1.56836,-1.4766 c -0.20024,-0.1889 -0.21233,-0.503 -0.0254,-0.7051 0.18557,-0.202 0.50167,-0.2137 0.70117,-0.025 l 0.86914,0.8164 2.63672,-2.6582 c 0.0739,-0.074 0.16993,-0.124 0.27344,-0.1406 0.0393,-0.01 0.0784,-0.01 0.11718,0 z m -10.42968,1.4981 c -0.554,0 -1,0.4488 -1,1.0078 0,0.558 0.446,1.0078 1,1.0078 h 1.75976 c 0.554,0 1,-0.4498 1,-1.0078 0,-0.559 -0.446,-1.0078 -1,-1.0078 z m 22.99804,0.996 c -4.40644,0 -7.99414,3.5956 -7.99414,8.002 0,4.4065 3.5877,8.002 7.99414,8.002 4.40638,0 8.00196,-3.5955 8.00196,-8.002 0,-4.4064 -3.59558,-8.002 -8.00196,-8.002 z m 0,2.002 c 3.32558,0 6.00196,2.6745 6.00196,6 0,3.3256 -2.67638,6.002 -6.00196,6.002 -3.32556,0 -6.00195,-2.6764 -6.00195,-6.002 0,-3.3255 2.67639,-6 6.00195,-6 z m -2.1914,2.043 c -0.13852,0 -0.31641,0.1254 -0.31641,0.4023 v 3.6543 c 0,0.2363 -0.67148,0.2553 -0.73633,0.014 -0.0513,-0.1912 0.10742,-3.6426 0.10742,-3.6426 0.0197,-0.2763 -0.0767,-0.4082 -0.21484,-0.418 -0.13814,-0.01 -0.2655,0.1065 -0.28516,0.3828 -0.12721,1.8709 -0.59839,4.6557 -0.31836,5.1407 0.28128,0.4872 1.09925,1.0674 1.19336,1.2304 0.12556,0.2176 0.0527,2.1348 0.0527,2.1348 l 1.10351,0.4805 c 0,0 -0.0664,-2.4259 0.043,-2.6153 0.11094,-0.1921 0.91209,-0.7432 1.19336,-1.2304 0.28003,-0.485 -0.19114,-3.2698 -0.31836,-5.1407 -0.0197,-0.2763 -0.14702,-0.3927 -0.28515,-0.3828 -0.13815,0.01 -0.2345,0.1417 -0.21485,0.418 0,0 0.15867,3.4514 0.10742,3.6426 -0.0648,0.2421 -0.73632,0.223 -0.73632,-0.014 v -3.6543 c 0,-0.2769 -0.17789,-0.4023 -0.31641,-0.4023 h -0.0293 z m 4.65625,0.1289 c -1.09419,0 -1.98243,2.1589 -1.98243,3.7929 0,1.3577 1.46215,1.7076 1.44727,2.045 l -0.15039,3.4257 1.26172,-0.4902 -0.14844,-2.9082 c -0.014,-0.284 1.55274,-0.6582 1.55274,-2.0723 0,-1.634 -0.88638,-3.7929 -1.98047,-3.7929 z m -15.03321,1.332 c 0.11645,0.01 0.22636,0.06 0.31055,0.1445 0.19313,0.1965 0.19313,0.5106 0,0.7071 l -3.31445,3.3418 -1.56836,-1.4766 c -0.20024,-0.1889 -0.21233,-0.503 -0.0254,-0.7051 0.18557,-0.202 0.50167,-0.2137 0.70117,-0.025 l 0.86914,0.8164 2.63672,-2.6582 c 0.0739,-0.074 0.16993,-0.124 0.27344,-0.1406 0.0393,-0.01 0.0784,-0.01 0.11718,0 z m -10.42968,3.4981 c -0.554,0 -1,0.4488 -1,1.0078 0,0.558 0.446,1.0078 1,1.0078 h 1.75976 c 0.554,0 1,-0.4498 1,-1.0078 0,-0.559 -0.446,-1.0078 -1,-1.0078 z" /><path
         id="path30"
         style="fill:#b1b2b5;fill-opacity:1"
         class="fills"
         d="m 946.72275,1110 c -1.37535,0.01 -2.48545,1.1246 -2.48047,2.5 v 2 h 0.4961 c 0.80699,0.021 1.44921,0.686 1.44921,1.5 0,0.814 -0.64222,1.479 -1.44921,1.5 h -0.4961 v 7 h 0.4961 c 0.80699,0.021 1.44921,0.686 1.44921,1.5 0,0.814 -0.64222,1.479 -1.44921,1.5 h -0.4961 v 7 h 0.4961 c 0.80699,0.021 1.44921,0.686 1.44921,1.5 0,0.814 -0.64222,1.479 -1.44921,1.5 h -0.4961 v 2 c 0,1.3798 1.11047,2.5 2.48047,2.5 h 14.79883 c -2.58706,-1.4617 -4.40182,-4.1417 -4.65625,-7.25 h -0.0957 c -0.34368,0 -0.62221,-0.2813 -0.6211,-0.625 0,-0.345 0.2791,-0.625 0.6211,-0.625 h 0.0762 c 0.14714,-2.7372 1.50437,-5.1623 3.54297,-6.75 h -3.61914 c -0.34368,0 -0.62221,-0.2813 -0.6211,-0.625 0,-0.345 0.2791,-0.625 0.6211,-0.625 h 5.77148 c 1.07041,-0.4401 2.24124,-0.6855 3.4668,-0.6855 0.68735,0 1.35492,0.08 2,0.2246 V 1112.5 c 0.006,-1.3752 -1.10332,-2.4945 -2.47852,-2.5 z m -3.71484,5 c -0.554,0 -1,0.4488 -1,1.0078 0,0.558 0.446,1.0078 1,1.0078 h 1.75976 c 0.554,0 1,-0.4498 1,-1.0078 0,-0.559 -0.446,-1.0078 -1,-1.0078 z m 10.42968,0.502 c 0.11645,0.01 0.22636,0.06 0.31055,0.1445 0.19313,0.1965 0.19313,0.5105 0,0.707 l -3.31445,3.3418 -1.56836,-1.4765 c -0.20024,-0.1889 -0.21232,-0.503 -0.0254,-0.7051 0.18557,-0.202 0.50167,-0.2141 0.70117,-0.025 l 0.86914,0.8164 2.63672,-2.6582 c 0.0739,-0.074 0.16993,-0.124 0.27344,-0.1406 0.0393,-0.01 0.0784,-0.01 0.11718,0 z m 3.33204,1.998 h 6.65039 c 0.34298,0 0.61914,0.28 0.61914,0.625 0.002,0.3439 -0.27524,0.6239 -0.61914,0.625 h -6.65039 c -0.34368,0 -0.62221,-0.2813 -0.6211,-0.625 0,-0.345 0.2791,-0.625 0.6211,-0.625 z m -3.33204,6.002 c 0.11645,0.01 0.22636,0.06 0.31055,0.1445 0.19313,0.1965 0.19313,0.5105 0,0.707 l -3.31445,3.3418 -1.56836,-1.4765 c -0.20024,-0.1889 -0.21232,-0.503 -0.0254,-0.7051 0.18557,-0.202 0.50167,-0.2141 0.70117,-0.025 l 0.86914,0.8164 2.63672,-2.6582 c 0.0739,-0.074 0.16993,-0.124 0.27344,-0.1406 0.0393,-0.01 0.0784,-0.01 0.11718,0 z M 943.00791,1125 c -0.554,0 -1,0.4488 -1,1.0078 0,0.558 0.446,1.0078 1,1.0078 h 1.75976 c 0.554,0 1,-0.4498 1,-1.0078 0,-0.559 -0.446,-1.0078 -1,-1.0078 z m 22.99804,0.9961 c -4.40643,0 -7.99414,3.5956 -7.99414,8.002 0,4.4065 3.58771,8.0019 7.99414,8.0019 4.40638,0 8.00196,-3.5954 8.00196,-8.0019 0,-4.4064 -3.59558,-8.002 -8.00196,-8.002 z m 0,2.002 c 3.32558,0 6.00196,2.6745 6.00196,6 0,3.3256 -2.67638,6.0019 -6.00196,6.0019 -3.32555,0 -6.00195,-2.6763 -6.00195,-6.0019 0,-3.3255 2.6764,-6 6.00195,-6 z m 1.63868,1.1445 a 0.95026006,0.95026006 0 0 0 -0.95118,0.9512 0.95026006,0.95026006 0 0 0 0.95118,0.9492 0.95026006,0.95026006 0 0 0 0.94921,-0.9492 0.95026006,0.95026006 0 0 0 -0.94921,-0.9512 z m -2.09766,1.5195 c -0.24752,0.01 -0.50502,0.053 -0.73047,0.1699 -0.37444,0.1938 -1.36914,1.9493 -1.36914,1.9493 0,0 1.29238,-1.4763 1.60938,-1.5352 0.2338,-0.043 0.66741,0.022 0.80273,0.291 0.16369,0.3257 -0.36185,1.9397 -0.80273,2.6758 -0.83725,1.3978 -2.95313,3.8945 -2.95313,3.8945 3.46925,-2.5916 4.20403,-3.8523 4.59961,-4.0254 0.39558,-0.173 1.009,0.2561 1.04297,0.3829 0.0873,0.3259 -2.28711,2.4902 -2.28711,2.4902 0,0 3.45703,-1.9652 3.45703,-2.4902 0,-0.5215 -1.06335,-0.7837 -1.73633,-1.252 -0.0819,-0.057 0.20022,-0.5544 0.30469,-0.4941 0.4176,0.2411 0.88121,0.4858 1.10547,0.4257 0.39498,-0.1058 1.3418,-2.4023 1.3418,-2.4023 0,0 -1.33586,1.6387 -1.51368,1.6387 -0.30927,0 -0.46437,-1.2044 -1.83007,-1.5703 0,0 -0.49648,-0.1658 -1.04102,-0.1485 z m -12.10938,0.8399 c 0.11645,0.01 0.22636,0.06 0.31055,0.1445 0.19313,0.1965 0.19313,0.5105 0,0.707 l -3.31445,3.3418 -1.56836,-1.4765 c -0.20024,-0.1889 -0.21232,-0.503 -0.0254,-0.7051 0.18557,-0.202 0.50167,-0.2141 0.70117,-0.025 l 0.86914,0.8164 2.63672,-2.6582 c 0.0739,-0.074 0.16993,-0.124 0.27344,-0.1406 0.0393,-0.01 0.0784,-0.01 0.11718,0 z M 943.00791,1135 c -0.554,0 -1,0.4488 -1,1.0078 0,0.558 0.446,1.0078 1,1.0078 h 1.75976 c 0.554,0 1,-0.4498 1,-1.0078 0,-0.559 -0.446,-1.0078 -1,-1.0078 z" /></g></g></svg>
