<svg 
  width="32" 
  xmlns="http://www.w3.org/2000/svg" 
  height="32" 
  viewBox="1387.008 1110 32 32" 
  fill="none">
  <g 
    class="fills" 
    data-testid="svg-path">
    <path 
      d="M1403.008 1110c-.282 0-.563.095-.779.284l-14.826 12.969c-.433.378-.612 1.365 0 1.365h3.415v13.906c0 1.919 1.706 3.476 3.809 3.476h5.334v-8.593c0-.768.682-1.391 1.524-1.391h3.428c.842 0 1.524.623 1.524 1.391V1142h4.952c2.103 0 3.81-1.557 3.81-3.476v-13.906h3.415c.611 0 .432-.987 0-1.365l-14.826-12.969a1.185 1.185 0 0 0-.78-.284Z" 
      class="fills" 
      style="stroke-width: 1.45569; fill: rgb(177, 178, 181); fill-opacity: 1;"/>
  </g>
</svg>