<svg
  width="32" 
  xmlns="http://www.w3.org/2000/svg" 
  height="32" 
  viewBox="902.008 1110 32 32" 
  fill="none">
  <g 
    class="fills" 
    data-testid="svg-path">
    <path 
      d="M906.722 1110a2.491 2.491 0 0 0-2.481 2.5v2h.496c.807.021 1.45.686 1.45 1.5s-.643 1.479-1.45 1.5h-.496v7h.496c.807.021 1.45.686 1.45 1.5s-.643 1.479-1.45 1.5h-.496v7h.496c.807.021 1.45.686 1.45 1.5s-.643 1.479-1.45 1.5h-.496v2c0 1.38 1.111 2.5 2.481 2.5h24.806a2.49 2.49 0 0 0 2.48-2.5v-27a2.49 2.49 0 0 0-2.48-2.5h-24.806Zm-3.714 5c-.554 0-1 .449-1 1.008 0 .558.446 1.008 1 1.008h1.759c.554 0 1-.45 1-1.008 0-.559-.446-1.008-1-1.008h-1.759Zm10.311.506a.496.496 0 0 1 .429.14.505.505 0 0 1 0 .708l-3.316 3.341-1.568-1.476a.502.502 0 0 1-.024-.706.492.492 0 0 1 .7-.025l.869.817 2.637-2.659a.496.496 0 0 1 .273-.14Zm3.449 1.994h12.651c.343 0 .62.28.62.625a.622.622 0 0 1-.62.625h-12.651a.623.623 0 0 1-.62-.625c0-.345.278-.625.62-.625Zm-3.449 6.006a.496.496 0 0 1 .429.14.505.505 0 0 1 0 .708l-3.316 3.341-1.568-1.476a.502.502 0 0 1-.024-.706.492.492 0 0 1 .7-.025l.869.817 2.637-2.659a.496.496 0 0 1 .273-.14ZM903.008 1125c-.554 0-1 .449-1 1.008 0 .558.446 1.008 1 1.008h1.759c.554 0 1-.45 1-1.008 0-.559-.446-1.008-1-1.008h-1.759Zm13.76.5h12.651c.343 0 .62.28.62.625a.622.622 0 0 1-.62.625h-12.651a.623.623 0 0 1-.62-.625c0-.345.278-.625.62-.625Zm-3.449 6.006a.496.496 0 0 1 .429.14.505.505 0 0 1 0 .708l-3.316 3.341-1.568-1.476a.502.502 0 0 1-.024-.706.492.492 0 0 1 .7-.025l.869.817 2.637-2.659a.496.496 0 0 1 .273-.14Zm3.449 1.994h12.651c.343 0 .62.28.62.625a.622.622 0 0 1-.62.625h-12.651a.623.623 0 0 1-.62-.625c0-.345.278-.625.62-.625Zm-13.76 1.5c-.554 0-1 .449-1 1.008 0 .558.446 1.008 1 1.008h1.759c.554 0 1-.45 1-1.008 0-.559-.446-1.008-1-1.008h-1.759Z" 
      class="fills" 
      style="fill: rgb(177, 178, 181); fill-opacity: 1;"/>
  </g>
</svg>