<?xml version="1.0" encoding="UTF-8" standalone="no"?>
<svg
   width="173"
   height="173"
   fill="none"
   version="1.1"
   id="svg2"
   xmlns="http://www.w3.org/2000/svg"
   xmlns:svg="http://www.w3.org/2000/svg">
  <path
     id="path2"
     style="fill:#5d5d5d;fill-opacity:1;stroke-width:0.514141"
     class="fills"
     d="m 42.774292,24.96838 c -9.150553,-0.06473 -17.688233,6.749279 -20.025547,15.679547 -2.028214,9.0522 0.958191,18.882072 6.601767,26.025481 3.29472,4.321374 8.669897,7.440215 14.05506,7.275124 3.7711,0.115608 7.520514,-1.400048 10.570401,-3.790472 -1.496136,-6.441132 -1.711171,-13.183352 -0.238488,-19.75619 l 0.01404,-0.06735 0.01684,-0.0575 C 55.221046,44.726692 58.127632,39.719913 61.990412,35.655225 58.325488,29.303993 51.382068,24.916419 44.035461,24.968387 c -0.211758,-0.0035 -0.419129,0.02164 -0.629875,0.02665 -0.210753,-0.005 -0.419528,-0.03017 -0.63128,-0.02665 z m 86.190508,0 c -7.19655,-0.05091 -14.00028,4.162159 -17.72068,10.303862 4.05153,4.132287 7.10694,9.275314 8.60643,15.004777 l 0.0154,0.0547 0.0154,0.07015 v 0.0028 c 1.50263,6.708594 1.24791,13.593661 -0.33387,20.154599 2.95172,2.156841 6.49131,3.49831 10.04854,3.389255 5.38515,0.165091 10.75893,-2.95375 14.05365,-7.275124 5.64358,-7.143409 8.62999,-16.973281 6.60177,-26.025481 -2.33732,-8.930268 -10.875,-15.744276 -20.02555,-15.679546 -0.21175,-0.0035 -0.41912,0.02164 -0.62987,0.02665 -0.21075,-0.005 -0.41953,-0.03017 -0.63128,-0.02665 z m -43.058781,3.775044 c -13.09807,-0.09266 -25.31861,9.659881 -28.664237,22.442638 -2.903176,12.957282 1.372739,27.027354 9.450933,37.252414 4.71606,6.185592 12.408435,10.650987 20.116731,10.414679 7.708296,0.236308 15.400674,-4.229087 20.116734,-10.414679 8.07819,-10.22506 12.35411,-24.295132 9.45093,-37.252414 -3.34562,-12.782757 -15.56616,-22.535293 -28.66423,-22.442638 -0.30311,-0.005 -0.601763,0.03069 -0.903434,0.03788 -0.301664,-0.0072 -0.600324,-0.0429 -0.903427,-0.03788 z M 26.641627,72.562527 C 20.34824,74.273614 9.2253848,79.073501 4.9060202,83.455585 1.8220499,86.583725 2.8746494e-4,91.749898 2.8746494e-4,98.853155 6.642732,104.76255 18.478639,108.39371 28.873546,110.24983 c 0.09394,-0.0989 0.173742,-0.21445 0.269346,-0.31143 7.37698,-7.48411 23.148681,-13.930332 32.729669,-16.535275 h 0.0014 l 1.101227,-0.298806 2.373609,-0.72106 c -0.506031,-0.572868 -1.023003,-1.12971 -1.498232,-1.752152 -3.322879,-4.212983 -6.043688,-9.021435 -7.96673,-14.146236 -3.656554,2.551778 -8.058479,3.989823 -12.478268,4.055605 -6.337542,-0.09433 -12.676901,-2.955077 -16.76394,-7.977949 z m 119.716983,0 c -4.08703,5.022872 -10.42499,7.883615 -16.76253,7.977949 -4.22023,-0.06281 -8.42545,-1.376888 -11.98167,-3.714714 -1.91521,4.998155 -4.5963,9.685048 -7.84608,13.805345 -0.47523,0.622456 -0.9922,1.179277 -1.49823,1.752152 l 2.3736,0.72106 1.10123,0.298806 h 0.001 c 9.58102,2.60495 25.35268,9.051165 32.72967,16.535275 0.0686,0.0696 0.12586,0.15248 0.19358,0.22305 10.2593,-1.88624 21.80577,-5.50373 28.33036,-11.308295 0,-7.103257 -1.82036,-12.26943 -4.90432,-15.39757 C 163.77626,79.073501 152.652,74.273614 146.3586,72.562527 Z M 62.815265,96.868139 c -9.008337,2.449248 -24.930863,9.320071 -31.113593,15.592571 -4.414385,4.47759 -7.021215,11.87243 -7.021215,22.04002 14.643751,13.02768 47.022681,18.42168 62.128989,18.49926 15.106304,-0.0776 47.485234,-5.47158 62.128994,-18.49926 0,-10.16759 -2.60683,-17.56243 -7.02122,-22.04002 -6.18272,-6.2725 -22.10526,-13.143323 -31.11359,-15.592571 -5.85018,7.189721 -14.922643,11.285491 -23.994184,11.420521 -9.071541,-0.13503 -18.14401,-4.2308 -23.994181,-11.420521 z" />
</svg>
